<mxfile host="app.diagrams.net" agent="Mozilla/5.0 (Windows NT 10.0; Win64; x64) AppleWebKit/537.36 (KHTML, like Gecko) Chrome/130.0.0.0 Safari/537.36" version="24.8.4">
  <diagram name="Page-1" id="oOGHS8Vbd4ZKxQbi76n3">
    <mxGraphModel dx="1034" dy="446" grid="1" gridSize="10" guides="1" tooltips="1" connect="1" arrows="1" fold="1" page="1" pageScale="1" pageWidth="850" pageHeight="1100" math="0" shadow="0">
      <root>
        <mxCell id="0" />
        <mxCell id="1" parent="0" />
        <mxCell id="TsRrLGtKie0nYtmioCsl-35" value="&lt;font color=&quot;#6666ff&quot;&gt;Project VPC&lt;/font&gt;" style="points=[[0,0],[0.25,0],[0.5,0],[0.75,0],[1,0],[1,0.25],[1,0.5],[1,0.75],[1,1],[0.75,1],[0.5,1],[0.25,1],[0,1],[0,0.75],[0,0.5],[0,0.25]];outlineConnect=0;gradientColor=none;html=1;whiteSpace=wrap;fontSize=12;fontStyle=0;container=1;pointerEvents=0;collapsible=0;recursiveResize=0;shape=mxgraph.aws4.group;grIcon=mxgraph.aws4.group_vpc2;strokeColor=#8C4FFF;fillColor=none;verticalAlign=top;align=left;spacingLeft=30;fontColor=#AAB7B8;dashed=0;" vertex="1" parent="1">
          <mxGeometry x="120" y="120" width="680" height="800" as="geometry" />
        </mxCell>
        <mxCell id="TsRrLGtKie0nYtmioCsl-4" value="NAT Gateway" style="sketch=0;outlineConnect=0;fontColor=#232F3E;gradientColor=none;fillColor=#8C4FFF;strokeColor=none;dashed=0;verticalLabelPosition=bottom;verticalAlign=top;align=center;html=1;fontSize=12;fontStyle=0;aspect=fixed;pointerEvents=1;shape=mxgraph.aws4.nat_gateway;" vertex="1" parent="TsRrLGtKie0nYtmioCsl-35">
          <mxGeometry x="120" y="175" width="25" height="25" as="geometry" />
        </mxCell>
        <mxCell id="TsRrLGtKie0nYtmioCsl-36" value="Region" style="points=[[0,0],[0.25,0],[0.5,0],[0.75,0],[1,0],[1,0.25],[1,0.5],[1,0.75],[1,1],[0.75,1],[0.5,1],[0.25,1],[0,1],[0,0.75],[0,0.5],[0,0.25]];outlineConnect=0;gradientColor=none;html=1;whiteSpace=wrap;fontSize=12;fontStyle=0;container=1;pointerEvents=0;collapsible=0;recursiveResize=0;shape=mxgraph.aws4.group;grIcon=mxgraph.aws4.group_region;strokeColor=#00A4A6;fillColor=none;verticalAlign=top;align=left;spacingLeft=30;fontColor=#147EBA;dashed=1;" vertex="1" parent="1">
          <mxGeometry x="80" y="80" width="730" height="960" as="geometry" />
        </mxCell>
        <mxCell id="TsRrLGtKie0nYtmioCsl-37" value="AWS Cloud" style="points=[[0,0],[0.25,0],[0.5,0],[0.75,0],[1,0],[1,0.25],[1,0.5],[1,0.75],[1,1],[0.75,1],[0.5,1],[0.25,1],[0,1],[0,0.75],[0,0.5],[0,0.25]];outlineConnect=0;gradientColor=none;html=1;whiteSpace=wrap;fontSize=12;fontStyle=0;container=1;pointerEvents=0;collapsible=0;recursiveResize=0;shape=mxgraph.aws4.group;grIcon=mxgraph.aws4.group_aws_cloud_alt;strokeColor=#232F3E;fillColor=none;verticalAlign=top;align=left;spacingLeft=30;fontColor=#232F3E;dashed=0;" vertex="1" parent="1">
          <mxGeometry x="40" y="40" width="800" height="1040" as="geometry" />
        </mxCell>
        <mxCell id="TsRrLGtKie0nYtmioCsl-32" value="us-east-1a" style="fillColor=none;strokeColor=#147EBA;dashed=1;verticalAlign=top;fontStyle=0;fontColor=#147EBA;whiteSpace=wrap;html=1;" vertex="1" parent="TsRrLGtKie0nYtmioCsl-37">
          <mxGeometry x="120" y="120" width="620" height="280" as="geometry" />
        </mxCell>
        <mxCell id="TsRrLGtKie0nYtmioCsl-5" value="Public subnet 1" style="points=[[0,0],[0.25,0],[0.5,0],[0.75,0],[1,0],[1,0.25],[1,0.5],[1,0.75],[1,1],[0.75,1],[0.5,1],[0.25,1],[0,1],[0,0.75],[0,0.5],[0,0.25]];outlineConnect=0;gradientColor=none;html=1;whiteSpace=wrap;fontSize=12;fontStyle=0;container=1;pointerEvents=0;collapsible=0;recursiveResize=0;shape=mxgraph.aws4.group;grIcon=mxgraph.aws4.group_security_group;grStroke=0;strokeColor=#7AA116;fillColor=#F2F6E8;verticalAlign=top;align=left;spacingLeft=30;fontColor=#248814;dashed=0;" vertex="1" parent="TsRrLGtKie0nYtmioCsl-37">
          <mxGeometry x="150" y="160" width="170" height="200" as="geometry" />
        </mxCell>
        <mxCell id="TsRrLGtKie0nYtmioCsl-2" value="EC2 Security group" style="fillColor=none;strokeColor=#DD3522;verticalAlign=top;fontStyle=0;fontColor=#DD3522;whiteSpace=wrap;html=1;" vertex="1" parent="TsRrLGtKie0nYtmioCsl-5">
          <mxGeometry x="22.5" y="30" width="115" height="80" as="geometry" />
        </mxCell>
        <mxCell id="TsRrLGtKie0nYtmioCsl-3" value="EC2" style="sketch=0;points=[[0,0,0],[0.25,0,0],[0.5,0,0],[0.75,0,0],[1,0,0],[0,1,0],[0.25,1,0],[0.5,1,0],[0.75,1,0],[1,1,0],[0,0.25,0],[0,0.5,0],[0,0.75,0],[1,0.25,0],[1,0.5,0],[1,0.75,0]];outlineConnect=0;fontColor=#232F3E;fillColor=#ED7100;strokeColor=#ffffff;dashed=0;verticalLabelPosition=bottom;verticalAlign=top;align=center;html=1;fontSize=12;fontStyle=0;aspect=fixed;shape=mxgraph.aws4.resourceIcon;resIcon=mxgraph.aws4.ec2;" vertex="1" parent="TsRrLGtKie0nYtmioCsl-5">
          <mxGeometry x="80" y="60" width="30" height="30" as="geometry" />
        </mxCell>
        <mxCell id="TsRrLGtKie0nYtmioCsl-19" value="Private subnet 1" style="points=[[0,0],[0.25,0],[0.5,0],[0.75,0],[1,0],[1,0.25],[1,0.5],[1,0.75],[1,1],[0.75,1],[0.5,1],[0.25,1],[0,1],[0,0.75],[0,0.5],[0,0.25]];outlineConnect=0;gradientColor=none;html=1;whiteSpace=wrap;fontSize=12;fontStyle=0;container=1;pointerEvents=0;collapsible=0;recursiveResize=0;shape=mxgraph.aws4.group;grIcon=mxgraph.aws4.group_security_group;grStroke=0;strokeColor=#00A4A6;fillColor=#E6F6F7;verticalAlign=top;align=left;spacingLeft=30;fontColor=#147EBA;dashed=0;" vertex="1" parent="TsRrLGtKie0nYtmioCsl-37">
          <mxGeometry x="360" y="160" width="160" height="200" as="geometry" />
        </mxCell>
        <mxCell id="TsRrLGtKie0nYtmioCsl-9" value="EC2" style="sketch=0;points=[[0,0,0],[0.25,0,0],[0.5,0,0],[0.75,0,0],[1,0,0],[0,1,0],[0.25,1,0],[0.5,1,0],[0.75,1,0],[1,1,0],[0,0.25,0],[0,0.5,0],[0,0.75,0],[1,0.25,0],[1,0.5,0],[1,0.75,0]];outlineConnect=0;fontColor=#232F3E;fillColor=#ED7100;strokeColor=#ffffff;dashed=0;verticalLabelPosition=bottom;verticalAlign=top;align=center;html=1;fontSize=12;fontStyle=0;aspect=fixed;shape=mxgraph.aws4.resourceIcon;resIcon=mxgraph.aws4.ec2;" vertex="1" parent="TsRrLGtKie0nYtmioCsl-19">
          <mxGeometry x="70" y="90" width="30" height="30" as="geometry" />
        </mxCell>
        <mxCell id="TsRrLGtKie0nYtmioCsl-18" value="DB subnet 1" style="points=[[0,0],[0.25,0],[0.5,0],[0.75,0],[1,0],[1,0.25],[1,0.5],[1,0.75],[1,1],[0.75,1],[0.5,1],[0.25,1],[0,1],[0,0.75],[0,0.5],[0,0.25]];outlineConnect=0;gradientColor=none;html=1;whiteSpace=wrap;fontSize=12;fontStyle=0;container=1;pointerEvents=0;collapsible=0;recursiveResize=0;shape=mxgraph.aws4.group;grIcon=mxgraph.aws4.group_security_group;grStroke=0;strokeColor=#00A4A6;fillColor=#E6F6F7;verticalAlign=top;align=left;spacingLeft=30;fontColor=#147EBA;dashed=0;" vertex="1" parent="TsRrLGtKie0nYtmioCsl-37">
          <mxGeometry x="560" y="160" width="160" height="200" as="geometry" />
        </mxCell>
        <mxCell id="TsRrLGtKie0nYtmioCsl-14" value="RDS" style="sketch=0;points=[[0,0,0],[0.25,0,0],[0.5,0,0],[0.75,0,0],[1,0,0],[0,1,0],[0.25,1,0],[0.5,1,0],[0.75,1,0],[1,1,0],[0,0.25,0],[0,0.5,0],[0,0.75,0],[1,0.25,0],[1,0.5,0],[1,0.75,0]];outlineConnect=0;fontColor=#232F3E;fillColor=#C925D1;strokeColor=#ffffff;dashed=0;verticalLabelPosition=bottom;verticalAlign=top;align=center;html=1;fontSize=12;fontStyle=0;aspect=fixed;shape=mxgraph.aws4.resourceIcon;resIcon=mxgraph.aws4.rds;" vertex="1" parent="TsRrLGtKie0nYtmioCsl-18">
          <mxGeometry x="65" y="75" width="40" height="40" as="geometry" />
        </mxCell>
        <mxCell id="TsRrLGtKie0nYtmioCsl-15" value="RDS Security group" style="fillColor=none;strokeColor=#DD3522;verticalAlign=top;fontStyle=0;fontColor=#DD3522;whiteSpace=wrap;html=1;" vertex="1" parent="TsRrLGtKie0nYtmioCsl-18">
          <mxGeometry x="20" y="30" width="120" height="130" as="geometry" />
        </mxCell>
        <mxCell id="TsRrLGtKie0nYtmioCsl-57" value="" style="endArrow=classic;html=1;rounded=0;entryX=0.71;entryY=0.571;entryDx=0;entryDy=0;entryPerimeter=0;" edge="1" parent="TsRrLGtKie0nYtmioCsl-18" target="TsRrLGtKie0nYtmioCsl-32">
          <mxGeometry width="50" height="50" relative="1" as="geometry">
            <mxPoint x="-40" y="120" as="sourcePoint" />
            <mxPoint x="10" y="70" as="targetPoint" />
          </mxGeometry>
        </mxCell>
        <mxCell id="TsRrLGtKie0nYtmioCsl-30" value="Application Load&lt;div&gt;&amp;nbsp;Balancer&lt;/div&gt;" style="outlineConnect=0;dashed=0;verticalLabelPosition=bottom;verticalAlign=top;align=center;html=1;shape=mxgraph.aws3.application_load_balancer;fillColor=#F58536;gradientColor=none;" vertex="1" parent="TsRrLGtKie0nYtmioCsl-37">
          <mxGeometry x="200" y="440" width="40" height="40" as="geometry" />
        </mxCell>
        <mxCell id="TsRrLGtKie0nYtmioCsl-31" value="IAM Role" style="sketch=0;outlineConnect=0;fontColor=#232F3E;gradientColor=none;fillColor=#DD344C;strokeColor=none;dashed=0;verticalLabelPosition=bottom;verticalAlign=top;align=center;html=1;fontSize=12;fontStyle=0;aspect=fixed;pointerEvents=1;shape=mxgraph.aws4.role;" vertex="1" parent="TsRrLGtKie0nYtmioCsl-37">
          <mxGeometry x="401" y="920" width="78" height="44" as="geometry" />
        </mxCell>
        <mxCell id="TsRrLGtKie0nYtmioCsl-34" value="us-east-1b" style="fillColor=none;strokeColor=#147EBA;dashed=1;verticalAlign=top;fontStyle=0;fontColor=#147EBA;whiteSpace=wrap;html=1;" vertex="1" parent="TsRrLGtKie0nYtmioCsl-37">
          <mxGeometry x="120" y="560" width="620" height="280" as="geometry" />
        </mxCell>
        <mxCell id="TsRrLGtKie0nYtmioCsl-23" value="Public subnet 2" style="points=[[0,0],[0.25,0],[0.5,0],[0.75,0],[1,0],[1,0.25],[1,0.5],[1,0.75],[1,1],[0.75,1],[0.5,1],[0.25,1],[0,1],[0,0.75],[0,0.5],[0,0.25]];outlineConnect=0;gradientColor=none;html=1;whiteSpace=wrap;fontSize=12;fontStyle=0;container=1;pointerEvents=0;collapsible=0;recursiveResize=0;shape=mxgraph.aws4.group;grIcon=mxgraph.aws4.group_security_group;grStroke=0;strokeColor=#7AA116;fillColor=#F2F6E8;verticalAlign=top;align=left;spacingLeft=30;fontColor=#248814;dashed=0;" vertex="1" parent="TsRrLGtKie0nYtmioCsl-37">
          <mxGeometry x="160" y="600" width="160" height="200" as="geometry" />
        </mxCell>
        <mxCell id="TsRrLGtKie0nYtmioCsl-25" value="Bastion Host" style="sketch=0;points=[[0,0,0],[0.25,0,0],[0.5,0,0],[0.75,0,0],[1,0,0],[0,1,0],[0.25,1,0],[0.5,1,0],[0.75,1,0],[1,1,0],[0,0.25,0],[0,0.5,0],[0,0.75,0],[1,0.25,0],[1,0.5,0],[1,0.75,0]];outlineConnect=0;fontColor=#232F3E;fillColor=#ED7100;strokeColor=#ffffff;dashed=0;verticalLabelPosition=bottom;verticalAlign=top;align=center;html=1;fontSize=12;fontStyle=0;aspect=fixed;shape=mxgraph.aws4.resourceIcon;resIcon=mxgraph.aws4.ec2;" vertex="1" parent="TsRrLGtKie0nYtmioCsl-23">
          <mxGeometry x="60" y="45" width="40" height="40" as="geometry" />
        </mxCell>
        <mxCell id="TsRrLGtKie0nYtmioCsl-20" value="Private subnet 2" style="points=[[0,0],[0.25,0],[0.5,0],[0.75,0],[1,0],[1,0.25],[1,0.5],[1,0.75],[1,1],[0.75,1],[0.5,1],[0.25,1],[0,1],[0,0.75],[0,0.5],[0,0.25]];outlineConnect=0;gradientColor=none;html=1;whiteSpace=wrap;fontSize=12;fontStyle=0;container=1;pointerEvents=0;collapsible=0;recursiveResize=0;shape=mxgraph.aws4.group;grIcon=mxgraph.aws4.group_security_group;grStroke=0;strokeColor=#00A4A6;fillColor=#E6F6F7;verticalAlign=top;align=left;spacingLeft=30;fontColor=#147EBA;dashed=0;" vertex="1" parent="TsRrLGtKie0nYtmioCsl-37">
          <mxGeometry x="360" y="600" width="160" height="200" as="geometry" />
        </mxCell>
        <mxCell id="TsRrLGtKie0nYtmioCsl-21" value="EC2 Security group" style="fillColor=none;strokeColor=#DD3522;verticalAlign=top;fontStyle=0;fontColor=#DD3522;whiteSpace=wrap;html=1;" vertex="1" parent="TsRrLGtKie0nYtmioCsl-20">
          <mxGeometry x="15" y="40" width="130" height="110" as="geometry" />
        </mxCell>
        <mxCell id="TsRrLGtKie0nYtmioCsl-22" value="EC2" style="sketch=0;points=[[0,0,0],[0.25,0,0],[0.5,0,0],[0.75,0,0],[1,0,0],[0,1,0],[0.25,1,0],[0.5,1,0],[0.75,1,0],[1,1,0],[0,0.25,0],[0,0.5,0],[0,0.75,0],[1,0.25,0],[1,0.5,0],[1,0.75,0]];outlineConnect=0;fontColor=#232F3E;fillColor=#ED7100;strokeColor=#ffffff;dashed=0;verticalLabelPosition=bottom;verticalAlign=top;align=center;html=1;fontSize=12;fontStyle=0;aspect=fixed;shape=mxgraph.aws4.resourceIcon;resIcon=mxgraph.aws4.ec2;" vertex="1" parent="TsRrLGtKie0nYtmioCsl-20">
          <mxGeometry x="60" y="80" width="40" height="40" as="geometry" />
        </mxCell>
        <mxCell id="TsRrLGtKie0nYtmioCsl-27" value="DB subnet 2" style="points=[[0,0],[0.25,0],[0.5,0],[0.75,0],[1,0],[1,0.25],[1,0.5],[1,0.75],[1,1],[0.75,1],[0.5,1],[0.25,1],[0,1],[0,0.75],[0,0.5],[0,0.25]];outlineConnect=0;gradientColor=none;html=1;whiteSpace=wrap;fontSize=12;fontStyle=0;container=1;pointerEvents=0;collapsible=0;recursiveResize=0;shape=mxgraph.aws4.group;grIcon=mxgraph.aws4.group_security_group;grStroke=0;strokeColor=#00A4A6;fillColor=#E6F6F7;verticalAlign=top;align=left;spacingLeft=30;fontColor=#147EBA;dashed=0;" vertex="1" parent="TsRrLGtKie0nYtmioCsl-37">
          <mxGeometry x="560" y="600" width="160" height="200" as="geometry" />
        </mxCell>
        <mxCell id="TsRrLGtKie0nYtmioCsl-26" value="RDS Security group" style="fillColor=none;strokeColor=#DD3522;verticalAlign=top;fontStyle=0;fontColor=#DD3522;whiteSpace=wrap;html=1;" vertex="1" parent="TsRrLGtKie0nYtmioCsl-27">
          <mxGeometry x="25" y="35" width="110" height="125" as="geometry" />
        </mxCell>
        <mxCell id="TsRrLGtKie0nYtmioCsl-28" value="RDS" style="sketch=0;points=[[0,0,0],[0.25,0,0],[0.5,0,0],[0.75,0,0],[1,0,0],[0,1,0],[0.25,1,0],[0.5,1,0],[0.75,1,0],[1,1,0],[0,0.25,0],[0,0.5,0],[0,0.75,0],[1,0.25,0],[1,0.5,0],[1,0.75,0]];outlineConnect=0;fontColor=#232F3E;fillColor=#C925D1;strokeColor=#ffffff;dashed=0;verticalLabelPosition=bottom;verticalAlign=top;align=center;html=1;fontSize=12;fontStyle=0;aspect=fixed;shape=mxgraph.aws4.resourceIcon;resIcon=mxgraph.aws4.rds;" vertex="1" parent="TsRrLGtKie0nYtmioCsl-27">
          <mxGeometry x="60" y="85" width="40" height="40" as="geometry" />
        </mxCell>
        <mxCell id="TsRrLGtKie0nYtmioCsl-58" value="" style="endArrow=classic;html=1;rounded=0;" edge="1" parent="TsRrLGtKie0nYtmioCsl-27">
          <mxGeometry width="50" height="50" relative="1" as="geometry">
            <mxPoint x="-40" y="70" as="sourcePoint" />
            <mxPoint y="70" as="targetPoint" />
          </mxGeometry>
        </mxCell>
        <mxCell id="TsRrLGtKie0nYtmioCsl-16" value="Secrets&lt;div&gt;&amp;nbsp;Manager&lt;/div&gt;" style="sketch=0;points=[[0,0,0],[0.25,0,0],[0.5,0,0],[0.75,0,0],[1,0,0],[0,1,0],[0.25,1,0],[0.5,1,0],[0.75,1,0],[1,1,0],[0,0.25,0],[0,0.5,0],[0,0.75,0],[1,0.25,0],[1,0.5,0],[1,0.75,0]];outlineConnect=0;fontColor=#232F3E;fillColor=#DD344C;strokeColor=#ffffff;dashed=0;verticalLabelPosition=bottom;verticalAlign=top;align=center;html=1;fontSize=12;fontStyle=0;aspect=fixed;shape=mxgraph.aws4.resourceIcon;resIcon=mxgraph.aws4.secrets_manager;" vertex="1" parent="TsRrLGtKie0nYtmioCsl-37">
          <mxGeometry x="600" y="440" width="40" height="40" as="geometry" />
        </mxCell>
        <mxCell id="TsRrLGtKie0nYtmioCsl-38" value="Internet&amp;nbsp;&lt;div&gt;Gateway&lt;/div&gt;" style="sketch=0;outlineConnect=0;fontColor=#232F3E;gradientColor=none;fillColor=#8C4FFF;strokeColor=none;dashed=0;verticalLabelPosition=bottom;verticalAlign=top;align=center;html=1;fontSize=12;fontStyle=0;aspect=fixed;pointerEvents=1;shape=mxgraph.aws4.internet_gateway;" vertex="1" parent="TsRrLGtKie0nYtmioCsl-37">
          <mxGeometry x="60" y="440" width="40" height="40" as="geometry" />
        </mxCell>
        <mxCell id="TsRrLGtKie0nYtmioCsl-6" value="EC2 Security group" style="fillColor=none;strokeColor=#DD3522;verticalAlign=top;fontStyle=0;fontColor=#DD3522;whiteSpace=wrap;html=1;" vertex="1" parent="TsRrLGtKie0nYtmioCsl-37">
          <mxGeometry x="385" y="211.25" width="110" height="97.5" as="geometry" />
        </mxCell>
        <mxCell id="TsRrLGtKie0nYtmioCsl-29" value="NAT&amp;nbsp;&lt;div&gt;Gateway&lt;/div&gt;" style="sketch=0;outlineConnect=0;fontColor=#232F3E;gradientColor=none;fillColor=#8C4FFF;strokeColor=none;dashed=0;verticalLabelPosition=bottom;verticalAlign=top;align=center;html=1;fontSize=12;fontStyle=0;aspect=fixed;pointerEvents=1;shape=mxgraph.aws4.nat_gateway;" vertex="1" parent="TsRrLGtKie0nYtmioCsl-37">
          <mxGeometry x="260" y="720" width="40" height="40" as="geometry" />
        </mxCell>
        <mxCell id="TsRrLGtKie0nYtmioCsl-39" value="NAT&amp;nbsp;&lt;div&gt;Gateway&lt;/div&gt;" style="sketch=0;outlineConnect=0;fontColor=#232F3E;gradientColor=none;fillColor=#8C4FFF;strokeColor=none;dashed=0;verticalLabelPosition=bottom;verticalAlign=top;align=center;html=1;fontSize=12;fontStyle=0;aspect=fixed;pointerEvents=1;shape=mxgraph.aws4.nat_gateway;" vertex="1" parent="TsRrLGtKie0nYtmioCsl-37">
          <mxGeometry x="260" y="280" width="40" height="40" as="geometry" />
        </mxCell>
        <mxCell id="TsRrLGtKie0nYtmioCsl-42" value="" style="endArrow=classic;html=1;rounded=0;entryX=-0.008;entryY=0.693;entryDx=0;entryDy=0;entryPerimeter=0;exitX=0.323;exitY=0.638;exitDx=0;exitDy=0;exitPerimeter=0;" edge="1" parent="TsRrLGtKie0nYtmioCsl-37" source="TsRrLGtKie0nYtmioCsl-32" target="TsRrLGtKie0nYtmioCsl-19">
          <mxGeometry width="50" height="50" relative="1" as="geometry">
            <mxPoint x="340" y="300" as="sourcePoint" />
            <mxPoint x="350" y="250" as="targetPoint" />
          </mxGeometry>
        </mxCell>
        <mxCell id="TsRrLGtKie0nYtmioCsl-43" value="" style="endArrow=classic;html=1;rounded=0;entryX=0.387;entryY=0.643;entryDx=0;entryDy=0;entryPerimeter=0;exitX=0.988;exitY=0.713;exitDx=0;exitDy=0;exitPerimeter=0;" edge="1" parent="TsRrLGtKie0nYtmioCsl-37" source="TsRrLGtKie0nYtmioCsl-23" target="TsRrLGtKie0nYtmioCsl-34">
          <mxGeometry width="50" height="50" relative="1" as="geometry">
            <mxPoint x="330" y="740" as="sourcePoint" />
            <mxPoint x="345" y="690" as="targetPoint" />
          </mxGeometry>
        </mxCell>
        <mxCell id="TsRrLGtKie0nYtmioCsl-44" value="" style="endArrow=classic;html=1;rounded=0;entryX=0;entryY=0.5;entryDx=0;entryDy=0;entryPerimeter=0;" edge="1" parent="TsRrLGtKie0nYtmioCsl-37" target="TsRrLGtKie0nYtmioCsl-30">
          <mxGeometry width="50" height="50" relative="1" as="geometry">
            <mxPoint x="100" y="460" as="sourcePoint" />
            <mxPoint x="150" y="410" as="targetPoint" />
          </mxGeometry>
        </mxCell>
        <mxCell id="TsRrLGtKie0nYtmioCsl-45" value="" style="endArrow=classic;html=1;rounded=0;entryX=0.161;entryY=0.857;entryDx=0;entryDy=0;entryPerimeter=0;" edge="1" parent="TsRrLGtKie0nYtmioCsl-37" target="TsRrLGtKie0nYtmioCsl-32">
          <mxGeometry width="50" height="50" relative="1" as="geometry">
            <mxPoint x="220" y="440" as="sourcePoint" />
            <mxPoint x="270" y="390" as="targetPoint" />
          </mxGeometry>
        </mxCell>
        <mxCell id="TsRrLGtKie0nYtmioCsl-46" value="" style="endArrow=classic;html=1;rounded=0;entryX=0.396;entryY=0.003;entryDx=0;entryDy=0;entryPerimeter=0;" edge="1" parent="TsRrLGtKie0nYtmioCsl-37" target="TsRrLGtKie0nYtmioCsl-23">
          <mxGeometry width="50" height="50" relative="1" as="geometry">
            <mxPoint x="220" y="480" as="sourcePoint" />
            <mxPoint x="225.34883720930225" y="595" as="targetPoint" />
          </mxGeometry>
        </mxCell>
        <mxCell id="TsRrLGtKie0nYtmioCsl-55" value="" style="endArrow=classic;html=1;rounded=0;entryX=0.806;entryY=0.857;entryDx=0;entryDy=0;entryPerimeter=0;" edge="1" parent="TsRrLGtKie0nYtmioCsl-37" target="TsRrLGtKie0nYtmioCsl-32">
          <mxGeometry width="50" height="50" relative="1" as="geometry">
            <mxPoint x="620" y="440" as="sourcePoint" />
            <mxPoint x="670" y="390" as="targetPoint" />
          </mxGeometry>
        </mxCell>
        <mxCell id="TsRrLGtKie0nYtmioCsl-56" value="" style="endArrow=classic;html=1;rounded=0;" edge="1" parent="TsRrLGtKie0nYtmioCsl-37" target="TsRrLGtKie0nYtmioCsl-27">
          <mxGeometry width="50" height="50" relative="1" as="geometry">
            <mxPoint x="620" y="480" as="sourcePoint" />
            <mxPoint x="629.72" y="540.04" as="targetPoint" />
          </mxGeometry>
        </mxCell>
        <mxCell id="TsRrLGtKie0nYtmioCsl-24" value="EC2 Security group" style="fillColor=none;strokeColor=#DD3522;verticalAlign=top;fontStyle=0;fontColor=#DD3522;whiteSpace=wrap;html=1;" vertex="1" parent="TsRrLGtKie0nYtmioCsl-37">
          <mxGeometry x="190" y="622.5" width="120" height="85" as="geometry" />
        </mxCell>
        <mxCell id="TsRrLGtKie0nYtmioCsl-49" value="" style="rounded=1;arcSize=10;dashed=1;fillColor=none;gradientColor=none;dashPattern=8 3 1 3;strokeWidth=2;" vertex="1" parent="1">
          <mxGeometry x="410" y="230" width="140" height="590" as="geometry" />
        </mxCell>
        <mxCell id="TsRrLGtKie0nYtmioCsl-52" value="Auto Scaling&lt;div&gt;&amp;nbsp;Group&lt;/div&gt;" style="sketch=0;outlineConnect=0;fontColor=#232F3E;gradientColor=none;fillColor=#ED7100;strokeColor=none;dashed=0;verticalLabelPosition=bottom;verticalAlign=top;align=center;html=1;fontSize=12;fontStyle=0;aspect=fixed;pointerEvents=1;shape=mxgraph.aws4.auto_scaling2;" vertex="1" parent="1">
          <mxGeometry x="456" y="480" width="48" height="48" as="geometry" />
        </mxCell>
      </root>
    </mxGraphModel>
  </diagram>
</mxfile>
